<?xml version="1.0" encoding="utf-8"?>
<!-- Generator: Adobe Illustrator 24.3.0, SVG Export Plug-In . SVG Version: 6.00 Build 0)  -->
<svg version="1.1" id="Layer_1" xmlns="http://www.w3.org/2000/svg" xmlns:xlink="http://www.w3.org/1999/xlink" x="0px" y="0px"
	 viewBox="0 0 695 153.4" style="enable-background:new 0 0 695 153.4;" xml:space="preserve">
<style type="text/css">
	.st0{fill:#222222;}
	.st1{fill:#CDD529;}
</style>
<g>
	<path class="st0" d="M8.6,84.9c4.5,4.5,11.5,8.3,20.1,8.3c5.6,0,9-2.4,9-5.4c0-3.6-4.1-5-10.8-6.4C16.5,79.3,2,76.7,2,61.7
		C2,51.2,11,42,27.1,42c10.1,0,18.9,3,25.6,8.8l-8.9,11.6c-5.3-4.4-12.2-6.5-17.8-6.5c-5.4,0-7.5,2.2-7.5,4.9
		c0,3.3,3.9,4.4,10.9,5.8c10.4,2.2,24.8,5.2,24.8,19.5c0,12.7-9.4,21.1-26.3,21.1c-12.8,0-21.6-4-28-10L8.6,84.9z"/>
	<path class="st0" d="M121.4,63.4l-16,42.5h-7.2L82.4,63.4V106H66.1v-63h22.6l13.1,35.7l13.2-35.7h22.6v63h-16.3V63.4z"/>
	<path class="st0" d="M194.2,96.4H168l-3.2,9.5h-17.7l23.7-63h20.4l23.8,63h-17.7L194.2,96.4z M172.2,82.7h17.7L181,57.1L172.2,82.7
		z"/>
	<path class="st0" d="M249,84.6h-8.3V106h-16.2v-63h31.6c14,0,21.9,9.3,21.9,21c0,11-6.7,16.8-12.6,18.9l12.9,23.1h-18.6L249,84.6z
		 M253.6,56.6h-12.9v14.2h12.9c4.2,0,7.9-2.7,7.9-7.1S257.8,56.6,253.6,56.6z"/>
	<path class="st0" d="M302.1,57.1h-17.7V42.9h51.5v14.2h-17.6V106h-16.3V57.1z"/>
	<path class="st0" d="M406.5,43.8H438c14.2,0,21.9,9.6,21.9,21c0,11.3-7.8,20.7-21.9,20.7h-15.3v21.4h-16.3L406.5,43.8L406.5,43.8z
		 M435.8,57.5h-13.1v14.2h13.1c4.4,0,7.6-2.7,7.6-7C443.4,60.4,440.2,57.5,435.8,57.5z"/>
	<path class="st0" d="M504.1,97.3h-26.2l-3.2,9.6H457l23.7-63.1h20.4l23.8,63.1h-17.7L504.1,97.3z M482.2,83.6h17.7L490.9,58
		L482.2,83.6z"/>
	<path class="st0" d="M526.7,75.4c0-19.5,14.8-32.6,33.7-32.6c15.7,0,23.8,8.6,28,16.9l-14,6.6c-2.1-5-7.5-9.2-14-9.2
		c-9.8,0-17.1,7.9-17.1,18.2s7.3,18.2,17.1,18.2c6.5,0,11.9-4.2,14-9.2l14,6.6c-4.1,8.1-12.3,16.9-28,16.9
		C541.4,108,526.7,94.8,526.7,75.4z"/>
	<path class="st0" d="M618.1,83.1l-4.2,5.3v18.4h-16.3v-63h16.3v25.9l19.4-25.9h20l-24.5,29.5l25.8,33.6h-20L618.1,83.1z"/>
	<path class="st1" d="M695,153.4H363.8V0H695V153.4z M376.8,140.4H682V13H376.8V140.4z"/>
</g>
</svg>
